<svg width="548" height="156" viewBox="0 0 548 156" fill="none" xmlns="http://www.w3.org/2000/svg">
<path d="M5.99165 124.506L0.500063 116.5L0.50269 114L0.577826 42.4999L3.08833 32.5026L8.59569 25.5084L27.1015 20.0278L76.1104 11.5793L121.116 6.12658L173.62 2.68176L221.62 2.7322L266.62 2.77949L307.12 2.82204L373.616 6.39192L413.113 8.93343L454.61 11.977L504.602 20.0296L538.593 28.5653L547.082 39.0742L547.037 81.5742L546.999 117.574L541.488 128.568L497.977 138.523L432.968 147.454L353.961 153.871L293.461 153.808L243.961 153.756L198.961 153.708L163.464 151.171L142.966 148.65L105.47 145.11L75.9743 141.079L55.4774 138.058L30.9827 133.032L13.9864 129.514L5.99165 124.506Z" fill="url(#paint0_linear_20_88)" stroke="black"/>
<path d="M105.461 8.5L63.4612 14.5L32.4612 134L79.9612 142.5L127.461 6L105.461 8.5Z" fill="black" stroke="black"/>
<path d="M428.461 10.5L453.961 13L475.961 15.5L492.461 19L517.961 134L498.961 138L475.961 141L428.461 10.5Z" fill="black" stroke="black"/>
<path d="M197.461 0.5H165.461L121.461 148.5L165.461 154.5L219.461 0.5H197.461Z" fill="black" stroke="black"/>
<path d="M347.961 2.5L379.461 6.5L422.461 148L379.461 150.5L325.461 2.5H347.961Z" fill="black" stroke="black"/>
<path d="M207.701 86.5C207.701 93.86 206.341 98.7667 203.621 101.22C200.955 103.62 195.648 104.82 187.701 104.82L175.301 105.06L165.221 104.9C154.501 104.9 147.595 103.513 144.501 100.74C141.461 97.9133 139.941 93.54 139.941 87.62L139.461 76.42C139.461 67.6733 140.741 61.2733 143.301 57.22C145.861 53.1133 151.088 51.06 158.981 51.06L174.181 50.66C178.608 50.66 182.261 50.7133 185.141 50.82C188.021 50.8733 191.515 51.1133 195.621 51.54C199.728 51.9667 202.661 53.78 204.421 56.98C206.181 60.1267 207.061 64.4467 207.061 69.94H191.301C191.301 67.4867 190.688 65.86 189.461 65.06C188.288 64.2067 186.395 63.78 183.781 63.78L179.221 63.7H174.741L166.501 63.78C161.595 63.78 158.581 64.6867 157.461 66.5C156.395 68.3133 155.861 72.0733 155.861 77.78C155.861 83.6467 156.501 87.46 157.781 89.22C159.061 90.98 162.475 91.86 168.021 91.86L174.341 92.02L182.661 91.94C185.915 91.94 188.235 91.4867 189.621 90.58C191.008 89.6733 191.701 87.54 191.701 84.18H207.621L207.701 86.5ZM283.223 104.5L271.383 66.66L259.063 104.5H237.223L215.543 51.14H232.183L247.783 91.62L261.783 51.14H281.383L294.663 91.62L310.743 51.14H327.303L305.303 104.5H283.223ZM403.717 86.5C403.717 93.86 402.357 98.7667 399.637 101.22C396.97 103.62 391.663 104.82 383.717 104.82L371.317 105.06L361.237 104.9C350.517 104.9 343.61 103.513 340.517 100.74C337.477 97.9133 335.957 93.54 335.957 87.62L335.477 76.42C335.477 67.6733 336.757 61.2733 339.317 57.22C341.877 53.1133 347.103 51.06 354.997 51.06L370.197 50.66C374.623 50.66 378.277 50.7133 381.157 50.82C384.037 50.8733 387.53 51.1133 391.637 51.54C395.743 51.9667 398.677 53.78 400.437 56.98C402.197 60.1267 403.077 64.4467 403.077 69.94H387.317C387.317 67.4867 386.703 65.86 385.477 65.06C384.303 64.2067 382.41 63.78 379.797 63.78L375.237 63.7H370.757L362.517 63.78C357.61 63.78 354.597 64.6867 353.477 66.5C352.41 68.3133 351.877 72.0733 351.877 77.78C351.877 83.6467 352.517 87.46 353.797 89.22C355.077 90.98 358.49 91.86 364.037 91.86L370.357 92.02L378.677 91.94C381.93 91.94 384.25 91.4867 385.637 90.58C387.023 89.6733 387.717 87.54 387.717 84.18H403.637L403.717 86.5Z" fill="white"/>
<line x1="104.461" y1="122" x2="442.461" y2="122" stroke="white"/>
<line x1="104.461" y1="33" x2="442.461" y2="33" stroke="white"/>
<defs>
<linearGradient id="paint0_linear_20_88" x1="273.87" y1="2.7871" x2="273.711" y2="153.787" gradientUnits="userSpaceOnUse">
<stop stop-color="#0096C7"/>
<stop offset="1" stop-color="#FF6B35"/>
</linearGradient>
</defs>
</svg>