<svg width="15" height="15" viewBox="0 0 15 15" fill="none" xmlns="http://www.w3.org/2000/svg">
<path d="M11.1656 4.4398C11.1456 4.4398 11.1322 4.4398 11.1122 4.4398H11.0789C9.81891 4.3998 8.87891 3.42647 8.87891 2.22647C8.87891 0.999803 9.87891 0.00646973 11.0989 0.00646973C12.3189 0.00646973 13.3189 1.00647 13.3189 2.22647C13.3122 3.43314 12.3722 4.40647 11.1722 4.44647C11.1722 4.4398 11.1722 4.4398 11.1656 4.4398ZM11.0989 0.999803C10.4256 0.999803 9.87891 1.54647 9.87891 2.2198C9.87891 2.8798 10.3922 3.41314 11.0522 3.4398C11.0589 3.43314 11.1122 3.43314 11.1722 3.4398C11.8189 3.40647 12.3189 2.87314 12.3256 2.2198C12.3256 1.54647 11.7789 0.999803 11.0989 0.999803Z" fill="#1A1A1A"/>
<path d="M11.175 9.35314C10.915 9.35314 10.655 9.33314 10.395 9.28647C10.1216 9.2398 9.94163 8.9798 9.9883 8.70647C10.035 8.43314 10.295 8.25314 10.5683 8.2998C11.3883 8.4398 12.255 8.28647 12.835 7.8998C13.1483 7.69314 13.315 7.43314 13.315 7.17314C13.315 6.91314 13.1416 6.6598 12.835 6.45314C12.255 6.06647 11.375 5.91313 10.5483 6.0598C10.275 6.11313 10.015 5.92647 9.9683 5.65311C9.92163 5.37978 10.1016 5.11978 10.375 5.07311C11.4616 4.87978 12.5883 5.08644 13.3883 5.61977C13.975 6.01314 14.315 6.57314 14.315 7.17314C14.315 7.76647 13.9816 8.33313 13.3883 8.73313C12.7816 9.13313 11.995 9.35314 11.175 9.35314Z" fill="#1A1A1A"/>
<path d="M3.14828 4.44C3.14161 4.44 3.13495 4.44 3.13495 4.44C1.93495 4.4 0.994948 3.42667 0.988281 2.22667C0.988281 1 1.98828 0 3.20828 0C4.42828 0 5.42828 1 5.42828 2.22C5.42828 3.42667 4.48828 4.4 3.28828 4.44L3.14828 3.94L3.19495 4.44C3.18161 4.44 3.16161 4.44 3.14828 4.44ZM3.21495 3.44C3.25495 3.44 3.28828 3.44 3.32828 3.44667C3.92161 3.42 4.44161 2.88667 4.44161 2.22667C4.44161 1.55333 3.89495 1.00666 3.22161 1.00666C2.54828 1.00666 2.00161 1.55333 2.00161 2.22667C2.00161 2.88 2.50828 3.40667 3.15495 3.44667C3.16161 3.44 3.18828 3.44 3.21495 3.44Z" fill="#1A1A1A"/>
<path d="M3.14 9.35314C2.32 9.35314 1.53333 9.13313 0.926667 8.73313C0.34 8.3398 0 7.77313 0 7.17314C0 6.5798 0.34 6.01314 0.926667 5.61977C1.72667 5.08644 2.85333 4.87978 3.94 5.07311C4.21333 5.11978 4.39333 5.37978 4.34667 5.65311C4.3 5.92647 4.04 6.11313 3.76667 6.0598C2.94 5.91313 2.06667 6.06647 1.48 6.45314C1.16667 6.6598 1 6.91314 1 7.17314C1 7.43314 1.17333 7.69314 1.48 7.8998C2.06 8.28647 2.92667 8.4398 3.74667 8.2998C4.02 8.25314 4.28 8.4398 4.32667 8.70647C4.37333 8.9798 4.19333 9.2398 3.92 9.28647C3.66 9.33314 3.4 9.35314 3.14 9.35314Z" fill="#1A1A1A"/>
<path d="M7.16556 9.42029C7.14556 9.42029 7.13223 9.42029 7.11223 9.42029H7.07889C5.81891 9.38029 4.87891 8.40696 4.87891 7.20696C4.87891 5.98029 5.87889 4.98694 7.09889 4.98694C8.31889 4.98694 9.31889 5.98696 9.31889 7.20696C9.31223 8.41363 8.37223 9.38696 7.17223 9.42696C7.17223 9.42029 7.17223 9.42029 7.16556 9.42029ZM7.09889 5.98029C6.42556 5.98029 5.87889 6.52696 5.87889 7.20029C5.87889 7.86029 6.39223 8.39363 7.05223 8.42029C7.05889 8.41363 7.11223 8.41363 7.17223 8.42029C7.81889 8.38696 8.31889 7.85363 8.32556 7.20029C8.32556 6.53363 7.77889 5.98029 7.09889 5.98029Z" fill="#1A1A1A"/>
<path d="M7.1662 14.3399C6.3662 14.3399 5.56619 14.1332 4.94619 13.7132C4.35952 13.3199 4.01953 12.7599 4.01953 12.1599C4.01953 11.5665 4.35286 10.9932 4.94619 10.5999C6.19287 9.77319 8.1462 9.77319 9.3862 10.5999C9.97287 10.9932 10.3129 11.5532 10.3129 12.1532C10.3129 12.7465 9.97954 13.3199 9.3862 13.7132C8.7662 14.1265 7.9662 14.3399 7.1662 14.3399ZM5.49953 11.4399C5.1862 11.6465 5.01953 11.9065 5.01953 12.1665C5.01953 12.4265 5.19286 12.6799 5.49953 12.8865C6.39954 13.4932 7.9262 13.4932 8.82621 12.8865C9.13954 12.6799 9.3062 12.4199 9.3062 12.1599C9.3062 11.8999 9.13287 11.6465 8.82621 11.4399C7.93287 10.8332 6.4062 10.8399 5.49953 11.4399Z" fill="#1A1A1A"/>
</svg>
